<svg width="107" height="62" viewBox="0 0 107 62" fill="none" xmlns="http://www.w3.org/2000/svg">
<path d="M66.6747 20.9317C67.9448 21.5171 69.0577 22.3817 69.9256 23.4572V11.4033H78.1502V44.285H69.9256V41.1856C69.0997 42.2741 68.0122 43.149 66.7583 43.7338C65.4329 44.3231 63.9893 44.6179 62.5322 44.5967C60.3893 44.6398 58.2763 44.1016 56.4299 43.0425C54.6654 42 53.2454 40.4869 52.3385 38.6827C51.3364 36.6614 50.8384 34.4386 50.8849 32.1949C50.8368 29.9884 51.327 27.8022 52.3153 25.8156C53.2079 24.0494 54.604 22.5705 56.337 21.5552C58.1606 20.5274 60.2394 20.0069 62.3464 20.0507C63.8388 20.025 65.3181 20.3261 66.6747 20.9317ZM64.5617 38.4116C65.2961 38.436 66.0266 38.2987 66.6989 38.01C67.3711 37.7214 67.9677 37.2888 68.4441 36.7445C69.4684 35.5317 69.996 33.9935 69.9256 32.4253C69.9256 30.6182 69.4317 29.1694 68.4441 28.0791C67.9637 27.5413 67.3657 27.1148 66.6939 26.8311C66.0221 26.5473 65.2936 26.4133 64.5617 26.4391C63.8243 26.4158 63.0909 26.5539 62.4158 26.8432C61.7406 27.1326 61.1408 27.5657 60.6607 28.1107C59.6245 29.3183 59.088 30.8582 59.156 32.4299C59.088 34.0015 59.6245 35.5414 60.6607 36.749C61.1421 37.2919 61.7424 37.7229 62.4174 38.0106C63.0924 38.2983 63.8251 38.4353 64.5617 38.4116Z" fill="#D84E55"/>
<path d="M103.107 23.5024C105.299 25.8066 106.395 28.9691 106.395 32.9901C106.395 33.6091 106.395 34.0835 106.349 34.4042H88.9708C89.2871 35.6427 90.0193 36.743 91.0514 37.5306C92.0954 38.2717 93.3634 38.6532 94.6552 38.615C95.7276 38.6143 96.7889 38.4038 97.776 37.996C98.8006 37.5663 99.7332 36.9533 100.525 36.1888L104.821 40.3182C103.526 41.7071 101.922 42.7889 100.131 43.4808C98.1518 44.2333 96.0411 44.6032 93.9168 44.5696C91.484 44.6231 89.0738 44.1055 86.8903 43.0606C84.955 42.1188 83.3537 40.635 82.2927 38.8002C81.1982 36.8455 80.649 34.6461 80.6998 32.4208C80.6485 30.1597 81.2056 27.9247 82.3159 25.9376C83.3697 24.085 84.9606 22.5751 86.8903 21.5958C89.0055 20.5438 91.356 20.0191 93.731 20.0688C97.7961 20.0537 100.922 21.1983 103.107 23.5024ZM90.5266 26.8231C89.5975 27.7396 88.9883 28.9171 88.7851 30.189H98.4076C98.4336 29.5789 98.3345 28.9698 98.1161 28.3974C97.8976 27.8249 97.5641 27.3005 97.1351 26.8547C96.6962 26.4303 96.1717 26.0988 95.5946 25.881C95.0176 25.6633 94.4005 25.5641 93.7821 25.5897C93.1806 25.577 92.5825 25.6799 92.022 25.8924C91.468 26.1035 90.9628 26.4199 90.5359 26.8231H90.5266Z" fill="#D84E55"/>
<path d="M16.2635 27.2206V19.9919C14.6278 19.9644 13.0124 20.3472 11.573 21.1033C10.1847 21.8589 9.02756 22.9597 8.21997 24.293V20.3037H0.00927734V44.2849H8.23391V32.0548C8.30243 31.3525 8.52237 30.672 8.87942 30.0579C9.23783 29.4408 9.72699 28.9049 10.3144 28.4857C11.5188 27.6122 13.0901 27.177 15.0282 27.18C15.4369 27.1755 15.8502 27.189 16.2635 27.2206Z" fill="#D84E55"/>
<path d="M49.3245 42.5772C46.4114 45.3322 42.7344 47.1993 38.7454 47.949V30.2251L49.8911 13.9605C51.1398 15.2363 52.2137 16.6637 53.0862 18.2073C53.3649 18.0176 53.6482 17.8323 53.9454 17.6607C55.9771 16.4933 58.2536 15.7875 60.6049 15.596C58.2242 10.916 54.5462 6.97661 49.9861 4.2224C45.426 1.46819 40.1654 0.00882491 34.7979 0.00903323C29.4267 0.0104812 24.163 1.47349 19.6017 4.23272C15.0404 6.99194 11.3634 10.9374 8.98625 15.6231C11.3375 15.8152 13.6139 16.5209 15.6458 17.6878C15.9384 17.8595 16.2263 18.0447 16.505 18.2344C17.3775 16.6908 18.4514 15.2634 19.7001 13.9876L30.8458 30.2522V47.9761C26.8572 47.2254 23.1805 45.3584 20.2667 42.6043C19.0289 44.3544 17.4239 45.8296 15.5576 46.9325C15.1304 47.182 14.6902 47.4097 14.2387 47.6147C16.9138 50.2812 20.1108 52.3993 23.641 53.8442C27.1713 55.289 30.9633 56.0313 34.7933 56.0271C38.624 56.0319 42.4169 55.2899 45.948 53.845C49.4791 52.4002 52.6769 50.2817 55.3525 47.6147C54.8881 47.4069 54.4609 47.1855 54.029 46.9325C52.1624 45.82 50.5591 44.3357 49.3245 42.5772ZM34.7979 22.147L26.1321 9.51932C28.8513 8.30862 31.8075 7.68443 34.7979 7.68955C37.7906 7.68675 40.7484 8.31404 43.4684 9.52836L34.7979 22.1786V22.147Z" fill="#D84E55"/>
<path d="M80.788 51.544C80.948 51.5947 81.0734 51.68 81.164 51.8C81.2547 51.9173 81.3 52.0627 81.3 52.236C81.3 52.4813 81.204 52.6707 81.012 52.804C80.8227 52.9347 80.5454 53 80.18 53H78.732V50.2H80.1C80.4414 50.2 80.7027 50.2653 80.884 50.396C81.068 50.5267 81.16 50.704 81.16 50.928C81.16 51.064 81.1267 51.1853 81.06 51.292C80.996 51.3987 80.9054 51.4827 80.788 51.544ZM79.376 50.688V51.348H80.02C80.18 51.348 80.3014 51.32 80.384 51.264C80.4667 51.208 80.508 51.1253 80.508 51.016C80.508 50.9067 80.4667 50.8253 80.384 50.772C80.3014 50.716 80.18 50.688 80.02 50.688H79.376ZM80.132 52.512C80.3027 52.512 80.4307 52.484 80.516 52.428C80.604 52.372 80.648 52.2853 80.648 52.168C80.648 51.936 80.476 51.82 80.132 51.82H79.376V52.512H80.132ZM83.076 52.008V53H82.428V52L81.344 50.2H82.032L82.78 51.444L83.528 50.2H84.164L83.076 52.008Z" fill="#D84E55"/>
<path fill-rule="evenodd" clip-rule="evenodd" d="M105.283 50.648C104.758 49.7347 104.083 49.2127 103.358 49.1416C96.5586 48.5366 87.8843 49.9719 86.1094 51.5258C85.3345 52.202 85.197 53.7915 85.6845 56.3893C86.0219 58.2042 86.5469 59.8292 86.5594 59.9004L86.6719 60.2563L88.8342 60.0309C89.0092 61.1459 90.0216 62 91.2465 62C92.5839 62 93.6838 60.968 93.6838 59.6869C93.6838 59.6276 93.6838 59.5801 93.6713 59.5208L98.7959 58.9633C98.7959 58.9752 98.7959 58.9989 98.7959 59.0108C98.7959 60.28 99.8834 61.3239 101.233 61.3239C102.571 61.3239 103.671 60.2919 103.671 59.0108C103.671 58.821 103.646 58.6312 103.596 58.4533L105.783 58.216L105.895 57.9906C106.77 56.2825 106.47 52.712 105.283 50.648ZM91.2465 61.0866C90.4341 61.0866 89.7716 60.4579 89.7716 59.6869C89.7716 58.9159 90.4341 58.2872 91.2465 58.2872C92.059 58.2872 92.7214 58.9159 92.7214 59.6869C92.7214 60.4579 92.059 61.0866 91.2465 61.0866ZM101.221 60.4224C100.408 60.4224 99.7459 59.7937 99.7459 59.0226C99.7459 58.2516 100.408 57.6229 101.221 57.6229C102.033 57.6229 102.696 58.2516 102.696 59.0226C102.696 59.7937 102.033 60.4224 101.221 60.4224ZM105.12 57.3738L103.133 57.5873C102.983 57.3975 102.796 57.2433 102.596 57.1128C102.208 56.8519 101.733 56.7095 101.221 56.7095C100.471 56.7095 99.7834 57.0417 99.3459 57.5517C99.2084 57.6941 99.0834 57.8602 98.9584 58.0381L93.4089 58.6312C93.3589 58.5363 93.2964 58.4414 93.2339 58.3584C93.2214 58.3465 93.2214 58.3346 93.2089 58.3228C92.7589 57.7534 92.0465 57.3738 91.2465 57.3738C90.6216 57.3738 90.0591 57.5992 89.6342 57.955C89.2717 58.2397 88.9967 58.6312 88.8342 59.1057L87.3593 59.2599C86.5719 56.6621 85.8969 52.9493 86.7594 52.1901C87.9468 51.1462 94.0338 49.9007 99.9834 49.9007C101.096 49.9007 102.196 49.9482 103.258 50.0431C103.658 50.0905 104.083 50.4582 104.446 51.0869C105.42 52.7832 105.733 55.8436 105.12 57.3738ZM88.9467 53.9457C88.8967 53.9101 88.8217 53.8745 88.7217 53.8389C88.6217 53.8033 88.5092 53.7915 88.3842 53.7915C88.2343 53.7915 88.1093 53.8152 87.9968 53.8508C87.8968 53.8982 87.8093 53.9457 87.7343 54.0169V55.8911H86.9094V53.1153L87.7343 53.0679V53.3407L87.9968 53.1865C88.0843 53.1391 88.1718 53.1035 88.2843 53.0679C88.3967 53.0323 88.4842 53.0204 88.5842 53.0204C88.6842 53.0204 88.7592 53.0204 88.8092 53.0323C88.8717 53.0442 88.9092 53.056 88.9467 53.0679V53.9457ZM91.2965 54.2541C91.259 54.0406 91.1715 53.8864 91.0465 53.7796C90.9216 53.6729 90.7716 53.6254 90.5841 53.6254C90.3716 53.6254 90.2091 53.6847 90.0966 53.8033C89.9841 53.922 89.9216 54.0762 89.8966 54.266H91.2965V54.2541ZM92.0715 54.6218H89.9091C89.9591 54.8472 90.0466 55.0133 90.1841 55.1082C90.3216 55.2031 90.4966 55.2624 90.6966 55.2624C90.8591 55.2624 91.034 55.2386 91.234 55.1912C91.434 55.1437 91.584 55.0844 91.6965 55.0133V55.7131C91.584 55.7843 91.434 55.8436 91.209 55.8792C90.9965 55.9148 90.8216 55.9385 90.6966 55.9385C90.1841 55.9385 89.7716 55.808 89.4842 55.5352C89.1967 55.2624 89.0467 54.9065 89.0467 54.4558C89.0467 54.005 89.1967 53.6373 89.4967 53.3644C89.7966 53.0916 90.1591 52.9493 90.6091 52.9493C91.059 52.9493 91.409 53.1035 91.6715 53.4C91.934 53.6966 92.0715 54.1118 92.0715 54.6218ZM94.4338 55.037V53.8152C94.3838 53.7559 94.3088 53.7084 94.2088 53.6729C94.1088 53.6373 93.9963 53.6135 93.8713 53.6135C93.6463 53.6135 93.4714 53.6729 93.3714 53.8033C93.2589 53.9338 93.2089 54.1355 93.2089 54.4083C93.2089 54.693 93.2714 54.8946 93.3839 55.037C93.4964 55.1793 93.6588 55.2386 93.8588 55.2386C93.9838 55.2386 94.0963 55.2149 94.1963 55.1793C94.2963 55.1437 94.3713 55.0963 94.4338 55.037ZM95.2462 55.8911H94.6213L94.4463 55.6301L94.0088 55.8555C93.9713 55.8792 93.9213 55.8911 93.8463 55.9029C93.7713 55.9148 93.7213 55.9148 93.6713 55.9148C93.2464 55.9148 92.9214 55.7843 92.6964 55.4996C92.4714 55.2268 92.3589 54.8828 92.3589 54.4676C92.3589 54.0169 92.4964 53.661 92.7589 53.4C93.0339 53.1391 93.3839 53.0086 93.8213 53.0086C93.9463 53.0086 94.0588 53.0204 94.1588 53.0323C94.2588 53.056 94.3463 53.0798 94.4338 53.1391V51.9173H95.2462V55.8911ZM98.046 54.6337C98.046 54.432 97.9835 54.2778 97.871 54.1829C97.7585 54.088 97.596 54.0406 97.4086 54.0406H96.8336V55.2268H97.4836C97.671 55.2268 97.821 55.1793 97.9085 55.0726C97.996 54.9777 98.046 54.8235 98.046 54.6337ZM97.896 53.1272C97.896 52.973 97.846 52.8425 97.746 52.7476C97.646 52.6527 97.5085 52.6053 97.3336 52.6053H96.8336V53.6729H97.3836C97.546 53.6729 97.671 53.6254 97.7585 53.5305C97.8585 53.4238 97.896 53.2933 97.896 53.1272ZM98.9709 54.7404C98.9709 55.0844 98.8584 55.3691 98.621 55.5708C98.3835 55.7843 98.0835 55.8792 97.721 55.8792H95.9337V51.9291H97.6835C98.0085 51.9291 98.2835 52.0122 98.4835 52.1901C98.696 52.368 98.7959 52.6053 98.7959 52.9137C98.7959 53.1628 98.7335 53.3526 98.6085 53.5068C98.4835 53.661 98.296 53.744 98.046 53.7796C98.296 53.8152 98.5085 53.922 98.696 54.088C98.8834 54.2541 98.9709 54.4676 98.9709 54.7404ZM102.221 55.8911H101.396V55.5826L101.046 55.7724C100.946 55.8199 100.846 55.8673 100.746 55.8911C100.646 55.9148 100.521 55.9385 100.408 55.9385C100.121 55.9385 99.8959 55.8555 99.7209 55.6894C99.5584 55.5233 99.4709 55.298 99.4709 55.0133V53.1272H100.296V54.8353C100.296 54.9421 100.333 55.0251 100.408 55.1082C100.483 55.1912 100.608 55.2268 100.758 55.2268C100.908 55.2268 101.033 55.2031 101.133 55.1437C101.246 55.0844 101.321 55.037 101.371 54.9777V53.1153H102.196V55.8911H102.221ZM105.095 54.9421C105.095 55.2386 104.983 55.4877 104.758 55.6775C104.533 55.8555 104.246 55.9504 103.908 55.9504C103.746 55.9504 103.558 55.9385 103.346 55.9029C103.121 55.8673 102.933 55.808 102.758 55.725V55.0251C102.896 55.0963 103.046 55.1556 103.221 55.2149C103.396 55.2624 103.583 55.298 103.821 55.298C103.983 55.298 104.108 55.2742 104.208 55.2386C104.308 55.1912 104.358 55.12 104.358 55.0014C104.358 54.9302 104.321 54.8591 104.233 54.8116C104.146 54.7642 104.008 54.7286 103.796 54.7167C103.421 54.693 103.171 54.5981 103.021 54.4558C102.871 54.3134 102.796 54.1236 102.796 53.8864C102.796 53.6135 102.908 53.4 103.133 53.2221C103.358 53.0442 103.646 52.9611 103.971 52.9611C104.121 52.9611 104.271 52.973 104.433 52.9967C104.596 53.0204 104.733 53.0442 104.858 53.0916V53.8033C104.708 53.744 104.571 53.6966 104.433 53.6729C104.296 53.6491 104.133 53.6254 103.971 53.6254C103.833 53.6254 103.733 53.6491 103.658 53.6847C103.583 53.7322 103.546 53.7796 103.546 53.8271C103.546 53.9338 103.596 54.005 103.708 54.0287C103.808 54.0643 103.921 54.088 104.046 54.088C104.396 54.1118 104.671 54.1948 104.845 54.3371C105.008 54.4913 105.095 54.693 105.095 54.9421Z" fill="#D84E55"/>
</svg>
