<svg width="118" height="29" viewBox="0 0 118 29" fill="none" xmlns="http://www.w3.org/2000/svg">
<path d="M32.5664 3.36206H113.215C114.032 3.36206 114.815 3.68281 115.393 4.25374C115.97 4.82467 116.295 5.59902 116.295 6.40644V20.0078C116.295 20.8153 115.97 21.5896 115.393 22.1605C114.815 22.7315 114.032 23.0522 113.215 23.0522H32.5664V3.36206Z" fill="white"/>
<path fill-rule="evenodd" clip-rule="evenodd" d="M46.2491 16.4794L46.3007 15.8951C46.3217 15.6568 46.3313 15.3789 46.3313 15.0461C46.3313 12.5992 45.5987 10.5608 44.1565 8.99511C43.093 7.83787 41.1554 6.45939 37.9439 6.45939C37.4883 6.4599 37.0333 6.49149 36.5821 6.55394V6.414C36.5821 5.60658 36.2576 4.83223 35.6801 4.2613C35.1026 3.69037 34.3193 3.36962 33.5026 3.36962H26.6416C25.9561 2.7846 25.215 2.26659 24.4285 1.82285C22.306 0.630774 19.9073 0.00275135 17.4662 0C15.113 0.00454529 12.7982 0.58949 10.7314 1.70183C8.66541 2.81706 6.91237 4.42274 5.63015 6.3743L5.43888 6.66739C4.62214 6.66739 3.83886 6.98814 3.26134 7.55907C2.68382 8.13 2.35938 8.90435 2.35938 9.71177V20.1307C2.35938 20.9382 2.68382 21.7125 3.26134 22.2835C3.83886 22.8544 4.62214 23.1751 5.43888 23.1751H6.81605C7.81506 24.3148 8.99384 25.2873 10.3068 26.055L10.4254 26.1231L10.5975 26.2214C12.6986 27.3825 15.0649 27.9937 17.4719 27.997H17.4815C19.4678 27.9989 21.4318 27.5825 23.2426 26.7754C24.8233 26.0737 26.2591 25.089 27.4774 23.871L28.2578 23.0919C28.3382 23.0806 28.4185 23.0692 28.4988 23.0541H36.5821C37.0541 23.1205 37.5303 23.154 38.0071 23.1543C39.2641 23.1658 40.5112 22.9333 41.6776 22.4698C42.8636 21.9887 43.9233 21.247 44.7762 20.3009C45.2744 19.75 45.6394 19.0944 45.8435 18.3835C45.9067 18.1661 45.9641 17.9411 46.0176 17.7066C46.119 17.2736 46.1936 16.8632 46.2491 16.4794Z" fill="#D84E55"/>
<path fill-rule="evenodd" clip-rule="evenodd" d="M29.7236 11.6404C29.4241 11.2576 29.0392 10.9482 28.5989 10.7365C28.1325 10.5202 27.6222 10.4122 27.107 10.4208C26.3785 10.4052 25.6602 10.5919 25.0336 10.9597C24.4321 11.3243 23.9499 11.8528 23.645 12.4819C23.3025 13.1935 23.1329 13.9744 23.1496 14.7623C23.1331 15.5632 23.3053 16.3569 23.6526 17.0806C23.9631 17.723 24.4529 18.2642 25.0642 18.6406C25.6989 19.0171 26.4282 19.2091 27.1682 19.1946C27.6721 19.2032 28.1713 19.0977 28.6276 18.8864C29.0632 18.6771 29.4392 18.3639 29.7217 17.975V19.0831H32.5621V7.33289H29.7236V11.6404ZM29.2129 16.3828C29.0502 16.5762 28.8451 16.7303 28.6131 16.8335C28.3811 16.9368 28.1283 16.9863 27.874 16.9785C27.6199 16.9851 27.3676 16.9349 27.1357 16.8318C26.9039 16.7287 26.6986 16.5752 26.5351 16.3828C26.1748 15.9497 25.9894 15.4001 26.0148 14.8398C25.9904 14.2792 26.1756 13.7293 26.5351 13.295C26.6986 13.1026 26.9039 12.9491 27.1357 12.846C27.3676 12.7428 27.6199 12.6927 27.874 12.6993C28.1275 12.6907 28.3796 12.739 28.6115 12.8405C28.8434 12.9421 29.049 13.0942 29.2129 13.2855C29.5697 13.723 29.7514 14.2748 29.7236 14.8361C29.7489 15.3958 29.5674 15.9456 29.2129 16.3828Z" fill="white"/>
<path fill-rule="evenodd" clip-rule="evenodd" d="M42.3122 15.0461C42.3122 13.609 41.9341 12.4788 41.1779 11.6557C40.4218 10.8325 39.343 10.4215 37.9416 10.4228C37.1202 10.4055 36.3077 10.5935 35.5793 10.9693C34.9107 11.3217 34.3619 11.861 34.0013 12.5198C33.6183 13.232 33.4273 14.0298 33.4467 14.8362C33.4284 15.6303 33.6175 16.4157 33.9956 17.1166C34.3594 17.7692 34.9123 18.2993 35.5832 18.6388C36.3342 19.0144 37.167 19.2021 38.0085 19.1853C38.7427 19.1973 39.4721 19.0656 40.1546 18.7977C40.7754 18.5471 41.3296 18.1589 41.7747 17.6631L40.2904 16.1882C40.0167 16.4631 39.692 16.6834 39.334 16.8368C38.9946 16.984 38.6279 17.06 38.2572 17.0599C37.8095 17.0729 37.3706 16.9356 37.012 16.6704C36.6547 16.3868 36.4019 15.9947 36.2928 15.5547H42.293C42.3122 15.4356 42.3122 15.2673 42.3122 15.0461ZM36.2335 14.0477C36.3025 13.5943 36.5124 13.1734 36.8341 12.8432C36.9818 12.6985 37.1574 12.5847 37.3505 12.5085C37.5439 12.4324 37.7508 12.3957 37.9588 12.4007C38.1713 12.393 38.3832 12.4293 38.5808 12.5071C38.7784 12.5849 38.9574 12.7026 39.1064 12.8526C39.2554 13.0128 39.3709 13.2005 39.4464 13.4049C39.5219 13.6093 39.5559 13.8265 39.5464 14.0439L36.2335 14.0477Z" fill="white"/>
<path fill-rule="evenodd" clip-rule="evenodd" d="M9.93077 13.5579C10.406 13.2281 10.9786 13.0638 11.5585 13.0908C11.7039 13.0908 11.8473 13.0908 11.9889 13.1059V10.5229C11.4237 10.514 10.866 10.6509 10.3707 10.92C9.89361 11.1915 9.49766 11.5829 9.22307 12.0546V10.6269H6.375V19.1966H9.21924V14.8361C9.24265 14.5859 9.31819 14.3432 9.44111 14.1232C9.56303 13.9033 9.72976 13.7108 9.93077 13.5579Z" fill="white"/>
<path fill-rule="evenodd" clip-rule="evenodd" d="M22.8561 19.2874L22.8331 19.2723L22.7911 19.3139L22.6381 19.4576C21.5601 20.4673 20.2048 21.1402 18.7418 21.392V14.9629L22.7777 8.63017C23.0905 8.93609 23.376 9.26824 23.6308 9.6229C23.9623 9.29166 24.3328 9.00091 24.7344 8.75686C25.0623 8.56046 25.4089 8.39642 25.7692 8.26711C24.9033 7.03177 23.7679 6.00433 22.4468 5.26054C20.9307 4.40897 19.2174 3.96011 17.4737 3.9577C15.7918 3.96679 14.1388 4.39124 12.665 5.19247C11.185 5.99165 9.92943 7.14253 9.01172 8.54129L9.04615 8.56398C9.88795 8.71806 10.6872 9.04674 11.3912 9.52835L11.483 9.42057C11.6742 9.19366 11.8655 8.98188 12.0568 8.78522L16.2189 14.9856V21.4014C15.3527 21.26 14.5186 20.9681 13.7553 20.5392L13.6788 20.4957L13.6195 20.4617C12.9924 20.0892 12.4224 19.6301 11.9267 19.0983C11.2592 19.6637 10.4764 20.0803 9.63144 20.3198C10.3936 21.245 11.315 22.0298 12.3533 22.6381L12.4527 22.6948L12.5618 22.7572C14.0633 23.5879 15.7549 24.0247 17.4756 24.026C18.8963 24.0276 20.3012 23.7311 21.5975 23.1562C22.7278 22.6532 23.7543 21.948 24.6254 21.0762C23.915 20.6095 23.3121 20 22.8561 19.2874ZM17.4469 12.291L14.0403 7.21009C15.0273 6.69198 16.108 6.4783 17.4832 6.4783C18.5953 6.47818 19.6935 6.72232 20.6985 7.19306L17.4469 12.291Z" fill="white"/>
<path d="M58.0999 16.7158H53.7484L53.0445 18.4763H50.3438L54.6684 8.52246H57.3673L61.5906 18.4763H58.7904L58.0999 16.7158ZM57.3348 14.7285L55.9557 11.1773L54.5479 14.7285H57.3348ZM65.2191 12.4423C65.034 12.4336 64.85 12.4755 64.6874 12.5634C64.6234 12.5993 64.5707 12.6521 64.5353 12.7159C64.4998 12.7796 64.4829 12.8519 64.4865 12.9245C64.4922 13.0163 64.5252 13.1044 64.5814 13.1777C64.6375 13.2511 64.7143 13.3064 64.8021 13.3368C65.1265 13.4798 65.4632 13.5937 65.8082 13.6771C66.2796 13.8088 66.7426 13.968 67.195 14.1536C67.5667 14.3107 67.8947 14.5539 68.1513 14.8627C68.4312 15.216 68.5738 15.6568 68.553 16.1051C68.5665 16.46 68.4903 16.8127 68.3313 17.1313C68.1724 17.4499 67.9357 17.7243 67.6426 17.9298C67.0343 18.371 66.2418 18.591 65.265 18.5897C64.6227 18.5922 63.9837 18.4992 63.3695 18.3137C62.7877 18.1397 62.2427 17.863 61.7609 17.4968L62.5642 15.863C62.9909 16.1606 63.4577 16.3974 63.951 16.5664C64.3908 16.7246 64.8544 16.8083 65.3224 16.8142C65.5276 16.8235 65.7319 16.7826 65.9173 16.695C65.9846 16.6647 66.0416 16.6156 66.0813 16.5539C66.1211 16.4921 66.1418 16.4203 66.1411 16.3471C66.1383 16.25 66.106 16.156 66.0483 16.0774C65.9906 15.9988 65.9103 15.9392 65.8178 15.9065C65.4906 15.7641 65.1513 15.6502 64.804 15.5661C64.3479 15.4356 63.9007 15.2765 63.4651 15.0896C63.1044 14.9303 62.7866 14.6894 62.5375 14.3862C62.2633 14.0391 62.1235 13.6066 62.1434 13.1666C62.1288 12.8136 62.2023 12.4625 62.3574 12.1443C62.5125 11.826 62.7445 11.5504 63.0329 11.3418C63.6271 10.9006 64.3922 10.6806 65.3281 10.6819C65.8939 10.6821 66.4569 10.7584 67.0018 10.9088C67.5493 11.0595 68.0733 11.2841 68.5587 11.5763L67.698 13.2233C66.6804 12.7014 65.8509 12.4411 65.2095 12.4423H65.2191ZM72.6444 12.4423C72.4598 12.4336 72.2765 12.4755 72.1145 12.5634C72.05 12.5989 71.9969 12.6515 71.961 12.7154C71.9252 12.7792 71.9082 12.8516 71.9118 12.9245C71.9176 13.0166 71.9509 13.1048 72.0074 13.1782C72.0639 13.2515 72.1411 13.3067 72.2293 13.3368C72.5529 13.4801 72.889 13.594 73.2335 13.6771C73.7049 13.8085 74.168 13.9677 74.6202 14.1536C74.9922 14.3103 75.3203 14.5535 75.5766 14.8627C75.8565 15.216 75.999 15.6568 75.9783 16.1051C75.9921 16.4601 75.916 16.8129 75.7571 17.1316C75.5981 17.4502 75.3612 17.7246 75.0678 17.9298C74.4596 18.371 73.667 18.591 72.6903 18.5897C72.048 18.5921 71.409 18.499 70.7947 18.3137C70.213 18.1397 69.668 17.863 69.1861 17.4968L69.9895 15.863C70.4161 16.1606 70.8829 16.3974 71.3762 16.5664C71.8161 16.7244 72.2797 16.8081 72.7476 16.8142C72.9534 16.8232 73.1583 16.7823 73.3444 16.695C73.4114 16.6644 73.468 16.6152 73.5074 16.5535C73.5468 16.4918 73.5672 16.4201 73.5663 16.3471C73.5636 16.25 73.5312 16.156 73.4736 16.0774C73.4159 15.9988 73.3355 15.9392 73.243 15.9065C72.9164 15.7643 72.5778 15.6504 72.2312 15.5661C71.7711 15.4363 71.3201 15.2771 70.8808 15.0896C70.5204 14.9298 70.2027 14.689 69.9531 14.3862C69.6789 14.0391 69.5392 13.6066 69.5591 13.1666C69.5444 12.8134 69.618 12.4621 69.7735 12.1438C69.9289 11.8255 70.1615 11.55 70.4504 11.3418C71.0434 10.9006 71.8085 10.6806 72.7457 10.6819C73.3115 10.6821 73.8745 10.7584 74.4194 10.9088C74.9671 11.0592 75.491 11.2838 75.9764 11.5763L75.1156 13.2233C74.1031 12.7014 73.2762 12.4411 72.6348 12.4423H72.6444ZM84.9394 18.4763H82.384V17.2264C81.8561 18.1176 81.0273 18.5721 79.8975 18.5897C79.5227 18.6066 79.1486 18.5437 78.8005 18.4054C78.4523 18.2671 78.1383 18.0565 77.8795 17.788C77.3784 17.2522 77.1272 16.54 77.1259 15.6512V10.7954H79.6832V14.927C79.6613 15.2972 79.7815 15.6618 80.0199 15.9481C80.1346 16.0734 80.2758 16.1722 80.4335 16.2375C80.5912 16.3029 80.7614 16.3332 80.9323 16.3263C81.1355 16.3298 81.3369 16.2876 81.5211 16.2027C81.7054 16.1179 81.8677 15.9926 81.9957 15.8365C82.2651 15.4788 82.4003 15.0396 82.3783 14.5942V10.8029H84.9337L84.9394 18.4763ZM90.4864 11.0506C90.9327 10.809 91.4351 10.6865 91.9439 10.6951V13.0096C91.8167 12.999 91.689 12.9945 91.5613 12.9964C91.0396 12.9714 90.5243 13.1184 90.0962 13.4143C89.9144 13.5484 89.763 13.7186 89.6517 13.914C89.5403 14.1094 89.4715 14.3256 89.4497 14.5488V18.4668H86.877V10.7859H89.4344V12.0623C89.6864 11.6404 90.0475 11.2926 90.4806 11.0544L90.4864 11.0506ZM99.3997 11.807C100.078 12.547 100.418 13.5599 100.419 14.8457C100.419 15.0348 100.419 15.1955 100.404 15.3014H95.0043C95.1019 15.6964 95.3293 16.0482 95.6508 16.3017C95.9733 16.5393 96.3677 16.6619 96.7697 16.6496C97.1033 16.65 97.4335 16.5825 97.7395 16.4511C98.0595 16.3128 98.3498 16.1151 98.5945 15.8687L99.9334 17.1923C99.5328 17.6369 99.0341 17.9843 98.4759 18.2078C97.8614 18.4484 97.2049 18.5666 96.544 18.5557C95.7877 18.5729 95.0385 18.4074 94.3616 18.0735C93.7581 17.7706 93.2604 17.2957 92.9328 16.7102C92.592 16.0825 92.4213 15.3783 92.4374 14.6661C92.4217 13.9418 92.5943 13.2256 92.9385 12.5861C93.2642 11.9939 93.7592 11.5099 94.3616 11.1943C95.0171 10.8573 95.7479 10.6888 96.4866 10.7046C97.7452 10.7084 98.7143 11.0771 99.394 11.8108L99.3997 11.807ZM97.5386 12.8791C97.4032 12.7439 97.2407 12.6381 97.0615 12.5684C96.8824 12.4987 96.6905 12.4667 96.4981 12.4745C96.3108 12.4697 96.1244 12.5025 95.9502 12.5707C95.776 12.6389 95.6176 12.7413 95.4844 12.8716C95.1969 13.1681 95.0092 13.5452 94.9469 13.9513H97.9346C97.9417 13.7567 97.9099 13.5627 97.8409 13.3804C97.772 13.198 97.6673 13.0309 97.5329 12.8886L97.5386 12.8791ZM109.568 18.4668H107.011V17.4835C106.757 17.8329 106.419 18.1138 106.027 18.3004C105.616 18.4906 105.167 18.5857 104.713 18.5784C104.047 18.592 103.39 18.4196 102.818 18.0811C102.267 17.7449 101.825 17.2591 101.546 16.6818C101.233 16.0327 101.079 15.3204 101.094 14.6018C101.079 13.8955 101.231 13.1954 101.538 12.5577C101.813 11.9933 102.248 11.5197 102.789 11.1943C103.354 10.865 104 10.698 104.656 10.7122C105.118 10.7055 105.576 10.8025 105.995 10.9958C106.391 11.1842 106.738 11.4613 107.007 11.8051V7.94196H109.564L109.568 18.4668ZM106.551 16.0464C106.87 15.6557 107.033 15.1635 107.011 14.6623C107.036 14.1584 106.872 13.6629 106.551 13.2706C106.403 13.0989 106.218 12.9625 106.009 12.8714C105.8 12.7804 105.573 12.7372 105.345 12.7449C105.115 12.7378 104.887 12.7819 104.677 12.8739C104.467 12.9659 104.281 13.1034 104.132 13.2762C103.808 13.6654 103.642 14.1591 103.665 14.6623C103.642 15.1648 103.809 15.6579 104.132 16.0464C104.281 16.2193 104.467 16.3568 104.677 16.4488C104.887 16.5407 105.115 16.5848 105.345 16.5778C105.572 16.5857 105.797 16.5428 106.005 16.4525C106.213 16.3621 106.398 16.2266 106.546 16.0559L106.551 16.0464Z" fill="#D84E55"/>
</svg>
