<svg width="30" height="30" viewBox="0 0 30 30" fill="none" xmlns="http://www.w3.org/2000/svg">
<path fill-rule="evenodd" clip-rule="evenodd" d="M9.22725 27.6959C2.54251 25.9217 1.53077 21.888 5.29349 17.6182L3.17967 14.4529C-3.21239 21.0461 0.65874 27.4381 9.22725 27.7019V27.6959ZM27.8867 15.3141C29.6934 21.9892 26.7051 24.8835 21.1249 23.7597L19.4386 27.1731C28.3456 29.4134 31.9457 22.8636 27.8867 15.3129V15.3141ZM7.79033 5.36163C12.6648 0.45949 16.6684 1.60493 18.4871 6.99367L22.286 6.75278C19.7759 -2.08553 12.3022 -1.92895 7.79154 5.36163H7.79033Z" fill="#2E3192"/>
<path fill-rule="evenodd" clip-rule="evenodd" d="M17.4188 30L16.9166 29.6736C13.6826 27.5704 10.7664 25.0152 8.25653 22.0855C5.54553 18.9432 3.37234 15.3745 1.82473 11.5236C1.80064 11.4658 1.77655 11.4032 1.75366 11.349L2.07646 11.1852C5.48035 9.42915 9.11576 8.16396 12.8744 7.42728C17.1129 6.58314 21.465 6.47436 25.7404 7.10569C25.7308 7.30684 25.7188 7.50076 25.7067 7.69829C25.5071 11.4568 24.7838 15.169 23.558 18.7275C22.1695 22.8066 20.0918 26.6173 17.4152 29.994L17.4188 30ZM19.4134 27.1744L18.9449 26.9925C15.8972 25.8154 13.034 24.2076 10.4426 22.218C7.6477 20.0906 5.22377 17.5156 3.26887 14.5974L3.17854 14.4649C3.25803 14.4011 3.33752 14.3361 3.41943 14.2734C5.93086 12.2259 8.71955 10.5442 11.7025 9.27853C15.0644 7.83382 18.6497 6.97822 22.3017 6.74917C22.3294 6.91539 22.3547 7.0804 22.3788 7.25143C22.8705 10.4009 22.92 13.6035 22.5257 16.7666C22.0909 20.3881 21.0386 23.9083 19.4146 27.1744H19.4134Z" fill="#D1D2D4"/>
<path fill-rule="evenodd" clip-rule="evenodd" d="M10.8329 11.1274H14.6281C15.6676 11.384 16.2939 11.9308 16.5709 12.5619C16.7168 12.8996 16.7732 13.2692 16.7347 13.6351C16.6937 14.0156 16.5637 14.3812 16.3553 14.7022C15.9012 15.4044 15.0605 15.9356 13.9175 15.9549C13.2502 15.8344 12.9142 16.5511 13.4791 17.0979L17.2827 20.627H10.8329C10.7394 20.6267 10.6498 20.5894 10.5837 20.5233C10.5176 20.4571 10.4803 20.3676 10.48 20.2741V11.4815C10.48 11.3878 10.5171 11.2979 10.5833 11.2315C10.6494 11.1652 10.7392 11.1277 10.8329 11.1274ZM17.1936 11.1274H19.8434C19.9365 11.128 20.0256 11.1653 20.0914 11.2311C20.1572 11.2969 20.1945 11.386 20.1951 11.4791V20.2717C20.1948 20.3649 20.1577 20.4543 20.0918 20.5204C20.026 20.5865 19.9367 20.6239 19.8434 20.6246H19.2255L15.358 17.0365C16.2257 16.7511 16.9696 16.1773 17.4658 15.4105C17.7862 14.9141 17.9851 14.3492 18.0464 13.7616C18.0965 13.2871 18.0467 12.8074 17.9003 12.3533C17.7538 11.8992 17.5139 11.4808 17.196 11.125L17.1936 11.1274Z" fill="#2E3192"/>
</svg>
